#!OML:ASF F:\VICON\USERDATA\INSTALL\rory3\rory3.ASF
:FULLY-SPECIFIED
:DEGREES
706
root 1.56458 19.8891 7.32243 21.2446 -7.81958 -3.77286
lowerback -6.29851 -0.41269 7.47565
upperback -8.26066 -0.702158 2.40296
thorax -5.18573 -0.708689 -1.67416
lowerneck -16.5902 -5.43508 -8.64285
upperneck 25.2711 -6.31631 3.66536
head 11.374 -3.26616 1.8513
rclavicle -4.12105e-014 2.70347e-014
rhumerus -48.2642 22.7072 -82.7279
rradius 62.5806
rwrist 9.42873
rhand -23.1612 -47.2567
rfingers 7.12502
rthumb 3.28745 -77.2111
lclavicle -4.12105e-014 2.70347e-014
lhumerus -48.8148 -31.5962 87.9517
lradius 80.4726
lwrist 4.64379
lhand -33.8265 -45.2395
lfingers 7.12502
lthumb -7.01208 -15.3757
rfemur -68.1251 1.91709 18.7512
rtibia 87.3269
rfoot -4.38706 -12.5011
rtoes -0.378199
lfemur -25.3227 2.15781 -16.4579
ltibia 26.0917
lfoot 21.4957 9.54262
ltoes -15.5467
707
root 1.48549 19.9361 7.34503 21.4136 -7.70441 -3.35795
lowerback -6.80122 -0.400021 7.18126
upperback -8.33143 -0.726588 2.26079
thorax -4.9737 -0.705036 -1.66647
lowerneck -16.272 -5.39874 -8.78425
upperneck 25.1627 -6.28535 3.78949
head 11.2781 -3.25427 1.93173
rclavicle 4.33972e-014 -7.95139e-016
rhumerus -48.1247 22.7948 -82.9603
rradius 61.5981
rwrist 9.89391
rhand -23.3357 -46.6389
rfingers 7.12502
rthumb 3.11892 -76.5958
lclavicle 4.33972e-014 -7.95139e-016
lhumerus -48.9642 -31.2807 88.4012
lradius 79.375
lwrist 4.16737
lhand -33.746 -43.9291
lfingers 7.12502
lthumb -6.93441 -14.0627
rfemur -66.9748 1.75128 18.4734
rtibia 84.8621
rfoot -3.54094 -11.6089
rtoes -2.5833
lfemur -26.685 3.65411 -17.2568
ltibia 29.1823
lfoot 20.6 8.46206
ltoes -15.6623
708
root 1.40592 19.9671 7.36361 21.4714 -7.57387 -3.31678
lowerback -7.0772 -0.35667 7.22588
upperback -8.29409 -0.6994 2.22671
thorax -4.77859 -0.688403 -1.73103
lowerneck -16.2304 -5.50527 -8.99975
upperneck 25.091 -6.42382 3.95723
head 11.268 -3.31654 2.00798
rclavicle 1.38404e-014 -2.42517e-014
rhumerus -47.9557 22.8762 -83.1376
rradius 60.5956
rwrist 10.8125
rhand -24.3559 -44.6887
rfingers 7.12502
rthumb 2.13364 -74.6577
lclavicle 1.38404e-014 -2.42517e-014
lhumerus -48.9263 -30.8023 88.7478
lradius 78.2694
lwrist 3.71218
lhand -33.8555 -43.048
lfingers 7.12502
lthumb -7.04005 -13.1851
rfemur -65.578 1.76153 18.5991
rtibia 82.3144
rfoot -2.97617 -10.6798
rtoes -3.71719
lfemur -28.0239 5.36506 -17.6873
ltibia 32.61
lfoot 19.6368 6.80528
ltoes -15.4399
709
root 1.32362 19.9943 7.37521 21.4859 -7.2735 -3.46235
lowerback -7.39749 -0.35019 7.46553
upperback -8.14042 -0.738127 2.24971
thorax -4.44547 -0.705977 -1.8485
lowerneck -16.3194 -5.59902 -9.15911
upperneck 25.0736 -6.54132 4.09923
head 11.2998 -3.36538 2.06611
rclavicle 1.89094e-014 -6.75868e-015
rhumerus -47.5251 22.8631 -83.2641
rradius 59.5272
rwrist 11.5313
rhand -24.6832 -43.7957
rfingers 7.12502
rthumb 1.81754 -73.7677
lclavicle 1.89094e-014 -6.75868e-015
lhumerus -48.4726 -30.2843 88.8653
lradius 76.9849
lwrist 3.55396
lhand -33.8146 -43.4291
lfingers 7.12502
lthumb -7.00057 -13.5649
rfemur -64.0853 1.76819 18.9983
rtibia 79.6345
rfoot -2.42657 -9.71821
rtoes -5.02043
lfemur -29.4967 6.99985 -17.8505
ltibia 36.3554
lfoot 18.2754 5.56753
ltoes -15.389
710
root 1.2321 20.0132 7.37692 21.4016 -6.91548 -3.13398
lowerback -7.63237 -0.428134 7.10789
upperback -7.99235 -0.859401 2.13297
thorax -4.15578 -0.739524 -1.78285
lowerneck -16.2913 -5.6741 -9.13657
upperneck 24.9754 -6.66275 4.13612
head 11.2669 -3.41264 2.05737
rclavicle -3.51476e-014 -3.49861e-014
rhumerus -47.0406 22.5815 -83.3936
rradius 58.5209
rwrist 11.6729
rhand -24.2848 -44.3464
rfingers 7.12502
rthumb 2.20231 -74.3148
lclavicle -3.51476e-014 -3.49861e-014
lhumerus -47.9207 -29.9357 88.8898
lradius 75.651
lwrist 3.5537
lhand -33.7834 -43.404
lfingers 7.12502
lthumb -6.97051 -13.5387
rfemur -62.6356 1.67896 18.9193
rtibia 76.8995
rfoot -1.46584 -8.79364
rtoes -6.35885
lfemur -31.0148 8.29296 -18.396
ltibia 40.2578
lfoot 16.2567 4.74608
ltoes -15.9157
711
root 1.14127 20.0142 7.37091 21.3275 -6.52319 -2.78087
lowerback -7.63295 -0.526008 6.72077
upperback -7.98264 -0.975594 1.99003
thorax -4.1437 -0.781595 -1.7215
lowerneck -16.158 -5.74421 -8.91708
upperneck 24.9427 -6.78604 3.95564
head 11.2216 -3.47132 1.93884
rclavicle -1.25234e-014 -1.74931e-014
rhumerus -46.8155 22.1974 -83.5892
rradius 57.7587
rwrist 11.6603
rhand -24.079 -44.8374
rfingers 7.12502
rthumb 2.40102 -74.8037
lclavicle -1.25234e-014 -1.74931e-014
lhumerus -47.6756 -29.6092 89.0665
lradius 74.3424
lwrist 3.68818
lhand -33.84 -42.7638
lfingers 7.12502
lthumb -7.02509 -12.9004
rfemur -61.1741 1.61247 18.7758
rtibia 74.0848
rfoot -0.342273 -7.95608
rtoes -7.32966
lfemur -32.5732 9.37693 -18.8792
ltibia 44.2529
lfoot 13.8973 4.13147
ltoes -16.4503
712
root 1.06435 20.0185 7.38093 21.0535 -6.17238 -2.69404
lowerback -7.52231 -0.576262 6.83874
upperback -7.93988 -1.04111 1.88677
thorax -4.17139 -0.822556 -1.89557
lowerneck -15.734 -5.72527 -8.80962
upperneck 24.8022 -6.7817 3.80093
head 11.075 -3.48378 1.87517
rclavicle 4.02539e-015 -3.45885e-014
rhumerus -46.7621 21.8852 -83.7772
rradius 57.0869
rwrist 11.8249
rhand -24.0786 -44.6806
rfingers 7.12502
rthumb 2.40144 -74.6469
lclavicle 4.02539e-015 -3.45885e-014
lhumerus -47.6304 -29.1356 89.3812
lradius 72.9966
lwrist 4.10469
lhand -33.9236 -42.6278
lfingers 7.12502
lthumb -7.10586 -12.7671
rfemur -59.2164 1.53721 18.8645
rtibia 71.0877
rfoot 0.626111 -6.98935
rtoes -8.45206
lfemur -33.7924 10.3557 -19.0532
ltibia 48.2724
lfoot 11.6539 4.12911
ltoes -16.448
